<svg width="711" height="650" viewBox="0 0 711 650" fill="none" xmlns="http://www.w3.org/2000/svg">
<path d="M1.47591 108.85C12.6075 63.4291 63.2494 37.5086 108.153 51.9874C130.66 59.2449 131.432 87.1848 154.949 90.0055C181.63 93.2057 187.842 60.035 214.333 55.4158C244.398 50.1733 259.763 74.3591 290.264 73.3908C334.196 71.9963 349.262 31.5375 393.063 27.8374C432.034 24.5454 452.661 57.1323 490.86 48.7608C521.04 42.1465 528.141 14.6632 558.209 7.56011C598.145 -1.87421 640.482 -7.08152 661.193 27.8465C678.097 56.3554 643.478 79.59 650.453 111.927C658.515 149.308 700.033 154.883 706.434 192.581C714.029 237.314 654.098 257.662 665.405 301.612C671.788 326.424 694.982 331.773 701.551 356.537C712.996 399.681 656.107 421.273 664.846 465.037C671.217 496.94 712.821 502.917 709.901 535.334C705.412 585.166 627.502 543.294 585.263 571.003C563.295 585.414 559.043 604.37 535.508 616.11C482.825 642.388 445.488 578.974 387.287 588.378C335.282 596.782 319.546 653.009 267.038 649.074C226.635 646.046 215.466 607.796 175.556 600.943C138.211 594.531 109.778 634.779 79.1489 612.781C43.8582 587.434 92.7009 541.849 75.2422 502.334C61.8798 472.09 22.6816 470.527 20.336 437.58C17.8831 403.126 68.6427 398.396 70.0901 363.875C71.8265 322.461 6.41049 319.965 6.51083 278.521C6.59372 244.284 47.8622 236.255 50.2255 202.091C53.058 161.144 -8.30506 148.759 1.47591 108.85Z" fill="white"/>
</svg>
