<svg width="1609" height="122" viewBox="0 0 1609 122" fill="none" xmlns="http://www.w3.org/2000/svg">
<path d="M0.5 0H1608.5V118C1608.5 118 1568.04 77.8794 1534.5 70.5C1482.25 59.003 1459.48 116.565 1406 118C1353.82 119.4 1329.39 70.3231 1278 79.5C1245.25 85.3492 1235.09 114.491 1202 118C1150.23 123.49 1135.97 59.0592 1084 56C1025.38 52.5488 1005.71 116.794 947 118C898.166 119.003 876.427 73.1295 828 79.5C793.275 84.068 780.968 109.463 747 118C680.769 134.645 642.114 87.5966 574 92.5C528.118 95.803 504.922 120.703 459 118C395.182 114.244 374.846 38.3911 311.5 47C261.647 53.7752 253.947 111.955 204 118C156.431 123.757 135.189 74.838 87.5 79.5C50.5226 83.1149 0.5 118 0.5 118V0Z" fill="#588B86"/>
</svg>
