<svg width="1727" height="804" viewBox="0 0 1727 804" fill="none" xmlns="http://www.w3.org/2000/svg">
<path d="M0 -1.18591H1728V784.814C1728 784.814 1671.34 695.283 1625 712C1594.62 722.961 1606.75 775.687 1574.5 777.5C1548.54 778.959 1544.85 745.781 1519.5 740C1477.78 730.483 1461.45 793.298 1419.5 784.814C1383.56 777.545 1384.23 732.973 1349 722.814C1296.77 707.753 1269.4 802.24 1221 777.5C1196.25 764.85 1200.75 734.328 1175.45 722.814C1130.68 702.44 1111.16 775.895 1062 777.5C1017.93 778.939 999.544 737.913 955.5 740C912.753 742.025 897.831 791.094 855.5 784.814C819.642 779.495 815.794 736.547 780 730.814C727.783 722.451 717.382 801.285 664.5 801.5C622.599 801.67 607.481 766.548 566.5 757.814C497.169 743.038 437.64 834.419 387 784.814C367.471 765.684 374.107 741.863 354.5 722.814C296.768 666.726 241.85 821.952 164 801.5C125.968 791.509 117.815 749.095 78.5 748.314C44.6987 747.643 0 784.814 0 784.814V-1.18591Z" fill="#F4D9D0"/>
</svg>
